<?xml version="1.0" encoding="UTF-8" standalone="no" ?>
<!DOCTYPE svg PUBLIC "-//W3C//DTD SVG 1.1//EN" "http://www.w3.org/Graphics/SVG/1.1/DTD/svg11.dtd">
<svg xmlns="http://www.w3.org/2000/svg" xmlns:xlink="http://www.w3.org/1999/xlink" version="1.1" width="1280" height="1024" viewBox="0 0 1280 1024" xml:space="preserve">
<desc>Created with Fabric.js 5.3.0</desc>
<defs>
</defs>
<g transform="matrix(1 0 0 1 640 512)" id="background-logo"  >
<rect style="stroke: none; stroke-width: 0; stroke-dasharray: none; stroke-linecap: butt; stroke-dashoffset: 0; stroke-linejoin: miter; stroke-miterlimit: 4; fill: rgb(255,255,255); fill-opacity: 0; fill-rule: nonzero; opacity: 1;"  paint-order="stroke"  x="-640" y="-512" rx="0" ry="0" width="1280" height="1024" />
</g>
<g transform="matrix(4.125531181301529 0 0 4.125531181301529 640.2686254123046 512.023877814427)" id="logo-logo"  >
<g style=""  paint-order="stroke"   >
		<g transform="matrix(-0.32726218058777884 -0.31603341421250347 0.3059912090493076 -0.31686317272398534 -19.386855445827678 54.634085075705)"  >
<g style=""  paint-order="stroke"   >
		<g transform="matrix(1 0 0 1 0 0)"  >
<linearGradient id="SVGID_2_100727" gradientUnits="userSpaceOnUse" gradientTransform="matrix(1 0 0 1 0.0008263189533153081 0)"  x1="40.02045802412994" y1="0" x2="209.97871565691673" y2="89.91734158452698">
<stop offset="14.499999999999998%" style="stop-color:rgb(15,131,215);stop-opacity: 1"/>
<stop offset="67.00000000000001%" style="stop-color:rgb(55,163,241);stop-opacity: 1"/>
</linearGradient>
<path style="stroke: none; stroke-width: 1; stroke-dasharray: none; stroke-linecap: butt; stroke-dashoffset: 0; stroke-linejoin: miter; stroke-miterlimit: 4; fill: url(#SVGID_2_100727); fill-rule: nonzero; opacity: 1;"  paint-order="stroke"  transform=" translate(-125.00041315947665, -44.95867079226349)" d="M 0.06 0 C 8.370000000000001 21.63 23.98 41.11 43.99 52.27 C 62.17 62.55 83.72 65.8 104.5 66.22 C 153.42000000000002 67.1 202.49 55.04 250 43.08 C 240.12 50.73 229.32999999999998 57.11 218.2 62.739999999999995 C 173.38 85.00999999999999 119.57999999999998 97.34 69.82 85.07 C 44.169999999999995 78.71 20.019999999999996 61.019999999999996 8.519999999999996 37.029999999999994 C 2.83 25.55 -0.49 12.73 0.06 0 L 0.06 0 z" stroke-linecap="round" />
</g>
</g>
</g>
		<g transform="matrix(-0.3272621805877786 -0.3160334142125038 -0.30599120904930793 0.3168631727239849 30.256097617353134 39.88719340645511)"  >
<g style=""  paint-order="stroke"   >
		<g transform="matrix(1 0 0 1 0 0)"  >
<linearGradient id="SVGID_2_100728" gradientUnits="userSpaceOnUse" gradientTransform="matrix(1 0 0 1 0.0008263189533153081 0)"  x1="40.02045802412994" y1="0" x2="209.97871565691673" y2="89.91734158452698">
<stop offset="14.499999999999998%" style="stop-color:rgb(15,131,215);stop-opacity: 1"/>
<stop offset="67.00000000000001%" style="stop-color:rgb(55,163,241);stop-opacity: 1"/>
</linearGradient>
<path style="stroke: none; stroke-width: 1; stroke-dasharray: none; stroke-linecap: butt; stroke-dashoffset: 0; stroke-linejoin: miter; stroke-miterlimit: 4; fill: url(#SVGID_2_100728); fill-rule: nonzero; opacity: 1;"  paint-order="stroke"  transform=" translate(-125.00041315947665, -44.95867079226349)" d="M 0.06 0 C 8.370000000000001 21.63 23.98 41.11 43.99 52.27 C 62.17 62.55 83.72 65.8 104.5 66.22 C 153.42000000000002 67.1 202.49 55.04 250 43.08 C 240.12 50.73 229.32999999999998 57.11 218.2 62.739999999999995 C 173.38 85.00999999999999 119.57999999999998 97.34 69.82 85.07 C 44.169999999999995 78.71 20.019999999999996 61.019999999999996 8.519999999999996 37.029999999999994 C 2.83 25.55 -0.49 12.73 0.06 0 L 0.06 0 z" stroke-linecap="round" />
</g>
</g>
</g>
		<g transform="matrix(-0.6853644598220393 0.13322135557221323 0.13322135557221318 0.6853644598220389 0 0)"  >
<g style=""  paint-order="stroke"   >
		<g transform="matrix(1 0 0 1 0 0)"  >
<linearGradient id="SVGID_4_100731" gradientUnits="userSpaceOnUse" gradientTransform="matrix(1 0 0 1 -0.0029971401280448617 0.006935584899224523)"  x1="255.60106002329903" y1="55.55084480115045" x2="0" y2="238.9022196139503">
<stop offset="7.5%" style="stop-color:rgb(14,123,200);stop-opacity: 1"/>
<stop offset="52.5%" style="stop-color:rgb(15,131,215);stop-opacity: 1"/>
<stop offset="100%" style="stop-color:rgb(55,163,241);stop-opacity: 1"/>
</linearGradient>
<path style="stroke: none; stroke-width: 1; stroke-dasharray: none; stroke-linecap: butt; stroke-dashoffset: 0; stroke-linejoin: miter; stroke-miterlimit: 4; fill: url(#SVGID_4_100731); fill-rule: nonzero; opacity: 1;"  paint-order="stroke"  transform=" translate(-127.79753287152147, -147.2334677924496)" d="M 116.99 189.45 C 53.21 182.12 14.3 153.02 3.46 143.84 C 1.6099999999999999 142.27 0.6600000000000001 139.9 0.9199999999999999 137.48 C 1.18 135.07 2.5999999999999996 132.95 4.74 131.81 C 13.82 126.96000000000001 22.83 123.35 30.57 120.72 C 50.129999999999995 132.74 94.77000000000001 159.6 122.43 171.55 C 121.36 175.49 119.48 182.14 116.99 189.45 z M 254.22 7.28 C 229.07 29.950000000000003 219.12 48.71 215.98 55.800000000000004 C 214.36999999999998 70.62 215.81 86.01 217.2 100.93 C 217.51999999999998 104.32000000000001 217.82999999999998 107.72000000000001 218.11999999999998 111.10000000000001 C 219.82999999999998 131.42000000000002 220.31999999999996 152.96 212.46999999999997 172.78 C 204.90999999999997 191.88 190.05999999999997 207.41 171.56999999999996 215.65 C 164.43999999999997 229.48000000000002 152.67999999999995 240.92000000000002 138.89999999999998 247.43 C 124.35999999999999 270.19 106.13999999999999 284.21000000000004 78.27999999999997 294.14 C 77.67999999999998 294.36 77.05999999999997 294.46 76.44999999999997 294.46 C 74.77999999999997 294.46 73.15999999999997 293.68 72.10999999999997 292.27 C 70.66999999999997 290.34 70.65999999999997 287.75 72.07999999999997 285.81 C 75.06999999999996 281.72 77.61999999999998 278.43 80.08999999999997 275.24 C 88.26999999999998 264.66 94.72999999999998 256.31 109.40999999999997 228.70000000000002 C 111.53999999999996 224.70000000000002 113.44999999999997 220.74 115.20999999999997 216.79000000000002 C 125.08999999999996 198.66000000000003 131.80999999999997 171.27 132.11999999999998 169.98000000000002 L 133.03999999999996 166.21 L 129.43999999999997 164.75 C 100.81999999999996 153.16 46.75999999999996 120.18 30.489999999999966 110.11 C 21.149999999999967 103.23 11.629999999999967 95.58 1.8099999999999667 86.83 C 0.22999999999996668 85.42 -0.39000000000003343 83.2 0.23999999999996668 81.16 C 0.8699999999999667 79.13 2.639999999999967 77.64 4.749999999999966 77.38 C 36.69999999999997 73.36999999999999 61.75999999999996 73.31 91.26999999999997 77.17999999999999 C 116.03999999999996 80.42999999999999 144.17999999999995 89.3 159.80999999999997 96.94999999999999 C 161.47999999999996 85.54999999999998 166.49999999999997 74.54999999999998 174.08999999999997 65.94999999999999 C 183.42999999999998 55.36999999999999 196.62999999999997 48.31999999999999 210.29999999999998 46.58999999999999 C 210.58999999999997 46.54999999999999 210.89 46.54999999999999 211.17999999999998 46.55999999999999 C 216.45999999999998 36.679999999999986 227.39 20.219999999999988 248.61999999999998 1.0799999999999912 C 250.32999999999998 -0.46000000000000885 252.96999999999997 -0.33000000000000873 254.51999999999998 1.3899999999999912 C 256.07 3.09 255.93 5.73 254.22 7.28 z M 195.91 72.31 C 195.91 70.06 194.07999999999998 68.23 191.82999999999998 68.23 C 189.57999999999998 68.23 187.74999999999997 70.06 187.74999999999997 72.31 C 187.74999999999997 74.56 189.57999999999998 76.39 191.82999999999998 76.39 C 194.07999999999998 76.39 195.91 74.56 195.91 72.31 z" stroke-linecap="round" />
</g>
</g>
</g>
		<g transform="matrix(0.5051753917446321 -0.2249185755166872 -0.20182894980576632 -0.4533152433022194 12.700081398336067 -36.67569074852719)"  >
<g style=""  paint-order="stroke"   >
		<g transform="matrix(1 0 0 1 0 0)"  >
<linearGradient id="SVGID_2_100729" gradientUnits="userSpaceOnUse" gradientTransform="matrix(1 0 0 1 0.0008263189533153081 0)"  x1="40.02045802412994" y1="0" x2="209.97871565691673" y2="89.91734158452698">
<stop offset="14.499999999999998%" style="stop-color:rgb(15,131,215);stop-opacity: 1"/>
<stop offset="67.00000000000001%" style="stop-color:rgb(55,163,241);stop-opacity: 1"/>
</linearGradient>
<path style="stroke: none; stroke-width: 1; stroke-dasharray: none; stroke-linecap: butt; stroke-dashoffset: 0; stroke-linejoin: miter; stroke-miterlimit: 4; fill: url(#SVGID_2_100729); fill-rule: nonzero; opacity: 1;"  paint-order="stroke"  transform=" translate(-125.00041315947665, -44.95867079226349)" d="M 0.06 0 C 8.370000000000001 21.63 23.98 41.11 43.99 52.27 C 62.17 62.55 83.72 65.8 104.5 66.22 C 153.42000000000002 67.1 202.49 55.04 250 43.08 C 240.12 50.73 229.32999999999998 57.11 218.2 62.739999999999995 C 173.38 85.00999999999999 119.57999999999998 97.34 69.82 85.07 C 44.169999999999995 78.71 20.019999999999996 61.019999999999996 8.519999999999996 37.029999999999994 C 2.83 25.55 -0.49 12.73 0.06 0 L 0.06 0 z" stroke-linecap="round" />
</g>
</g>
</g>
		<g transform="matrix(0.39589614177674765 -0.12863445412588054 -0.08668989662721276 -0.26680406768899706 3.2678522012236044 -18.79158963650457)"  >
<g style=""  paint-order="stroke"   >
		<g transform="matrix(1 0 0 1 0 0)"  >
<linearGradient id="SVGID_2_100730" gradientUnits="userSpaceOnUse" gradientTransform="matrix(1 0 0 1 0.0008263189533153081 0)"  x1="40.02045802412994" y1="0" x2="209.97871565691673" y2="89.91734158452698">
<stop offset="14.499999999999998%" style="stop-color:rgb(15,131,215);stop-opacity: 1"/>
<stop offset="67.00000000000001%" style="stop-color:rgb(55,163,241);stop-opacity: 1"/>
</linearGradient>
<path style="stroke: none; stroke-width: 1; stroke-dasharray: none; stroke-linecap: butt; stroke-dashoffset: 0; stroke-linejoin: miter; stroke-miterlimit: 4; fill: url(#SVGID_2_100730); fill-rule: nonzero; opacity: 1;"  paint-order="stroke"  transform=" translate(-125.00041315947665, -44.95867079226349)" d="M 0.06 0 C 8.370000000000001 21.63 23.98 41.11 43.99 52.27 C 62.17 62.55 83.72 65.8 104.5 66.22 C 153.42000000000002 67.1 202.49 55.04 250 43.08 C 240.12 50.73 229.32999999999998 57.11 218.2 62.739999999999995 C 173.38 85.00999999999999 119.57999999999998 97.34 69.82 85.07 C 44.169999999999995 78.71 20.019999999999996 61.019999999999996 8.519999999999996 37.029999999999994 C 2.83 25.55 -0.49 12.73 0.06 0 L 0.06 0 z" stroke-linecap="round" />
</g>
</g>
</g>
</g>
</g>
</svg>